<svg width="36" height="38" viewBox="0 0 36 38" fill="none" xmlns="http://www.w3.org/2000/svg">
<g clip-path="url(#clip0_294_42)">
<path d="M2.77988 27.9556C2.03927 27.9453 1.25067 28.0713 0.743717 27.4212C0.520142 27.1346 0.361241 26.7361 0.335511 26.3773C0.293439 25.7857 0.561867 25.2393 1.13906 25.0161C1.63558 24.824 2.19678 24.7949 2.71312 24.697C2.71312 24.0383 2.71312 23.3453 2.71312 22.6527C2.71312 21.9601 2.71312 21.3049 2.71312 20.5746C2.03266 20.5503 1.17939 20.702 0.673133 19.9491C0.479113 19.6601 0.339683 19.274 0.339336 18.9319C0.338293 17.9254 0.950949 17.5532 2.76771 17.3694V13.1864C2.52431 13.1864 2.23502 13.1939 1.94643 13.185C1.00276 13.1556 0.293786 12.4633 0.313258 11.5968C0.333077 10.7083 1.02362 10.0661 1.98016 10.0496C2.25728 10.0448 2.5344 10.049 2.78996 10.049C2.76632 9.65181 2.7305 9.32588 2.73016 8.99995C2.72911 6.97419 2.73746 4.94842 2.74059 2.92265C2.74302 1.38852 3.84142 0.314522 5.43982 0.312126C9.82056 0.306306 14.2013 0.308018 18.5824 0.30836C23.2823 0.30836 27.9826 0.30836 32.6825 0.312811C34.6495 0.314865 35.6759 1.31765 35.677 3.24071C35.6822 13.7886 35.685 24.3368 35.6867 34.8847C35.6867 36.5712 34.5643 37.6883 32.8637 37.689C23.7472 37.6918 14.6311 37.6924 5.51458 37.6907C3.84073 37.6907 2.71312 36.587 2.70616 34.9333C2.69747 32.8377 2.70547 30.7421 2.71173 28.6465C2.71242 28.4397 2.75102 28.2333 2.77953 27.9556H2.77988ZM3.31882 27.9536C3.33551 28.3226 3.35881 28.6003 3.35915 28.8779C3.36055 30.8513 3.3522 32.8247 3.35742 34.7981C3.36124 36.234 4.14845 37.0132 5.58725 37.0135C14.6328 37.0156 23.678 37.0166 32.7236 37.0156C34.2847 37.0156 35.0316 36.2775 35.0323 34.7276C35.0379 24.2492 35.0414 13.7711 35.0417 3.29275C35.0417 1.64769 34.3119 0.944814 32.6276 0.944472C23.653 0.943787 14.6787 0.943787 5.70408 0.947211C5.43948 0.947211 5.16896 0.958851 4.91131 1.01226C4.02362 1.19577 3.41583 1.91679 3.41305 2.79803C3.4061 5.19834 3.41061 7.59866 3.41061 10.0219C3.38488 10.0123 3.41722 10.0346 3.44956 10.0349C4.21208 10.0414 4.97459 10.0363 5.73676 10.0544C5.99824 10.0606 6.27675 10.077 6.51493 10.1695C7.22285 10.444 7.60742 11.1777 7.47216 11.9131C7.34107 12.6266 6.69539 13.1696 5.92696 13.1819C5.06326 13.1953 4.19886 13.185 3.33482 13.185V17.4084C4.178 17.4084 5.01145 17.3632 5.83586 17.4279C6.23085 17.4591 6.67279 17.6197 6.98085 17.861C7.51388 18.279 7.62306 18.8926 7.39497 19.5273C7.15644 20.1911 6.64845 20.5393 5.94017 20.5558C5.06256 20.576 4.18391 20.5606 3.32856 20.5606V24.7193C3.34733 24.7316 3.37584 24.7668 3.4047 24.7672C4.18461 24.7771 4.96451 24.7826 5.74441 24.7911C6.81152 24.8031 7.4885 25.4095 7.49337 26.3544C7.49824 27.3092 6.7917 27.9477 5.71729 27.9529C4.92348 27.9566 4.12932 27.9536 3.31882 27.9536ZM3.87863 12.5376C4.5344 12.5376 5.19121 12.5568 5.84629 12.5321C6.47459 12.5085 6.85568 12.1268 6.83794 11.5975C6.82021 11.0647 6.43078 10.7022 5.807 10.695C4.54831 10.6799 3.28927 10.6789 2.03092 10.6923C1.37132 10.6991 0.981199 11.0737 0.99163 11.6344C1.00171 12.1702 1.37584 12.5136 2.01736 12.5328C2.63732 12.5513 3.25832 12.5369 3.87863 12.5376ZM3.91687 19.9135C4.57265 19.9135 5.22877 19.9268 5.88384 19.9094C6.4433 19.8947 6.8369 19.4961 6.8369 18.9864C6.8369 18.4673 6.45895 18.0904 5.87515 18.0842C4.58169 18.0705 3.28788 18.0712 1.99406 18.0822C1.37341 18.0873 0.985024 18.4595 0.990935 18.9966C0.997194 19.5355 1.38384 19.8977 2.00276 19.9111C2.64045 19.9248 3.27883 19.9142 3.91653 19.9135H3.91687ZM3.92348 27.276C4.5789 27.276 5.23468 27.287 5.88975 27.2726C6.43565 27.2606 6.81604 26.8963 6.83412 26.4054C6.85324 25.8898 6.47251 25.4605 5.91827 25.4526C4.59003 25.4338 3.2611 25.4345 1.93287 25.4519C1.36055 25.4594 0.986763 25.8576 0.993369 26.3773C0.999975 26.9022 1.37272 27.2613 1.95756 27.2729C2.61263 27.2863 3.2684 27.276 3.92383 27.2757L3.92348 27.276Z" fill="#999999" fill-opacity="0.82" stroke="#533A8E" stroke-miterlimit="10"/>
<path d="M30.0981 18.9643C30.1075 24.5623 25.5786 29.089 19.9541 29.1037C14.3328 29.1185 9.76462 24.5996 9.75453 19.0143C9.74445 13.4382 14.2782 8.89024 19.8491 8.88818C25.5546 8.88613 30.0887 13.3437 30.0977 18.9643H30.0981ZM10.4207 18.9968C10.4061 24.1881 14.6394 28.4194 19.8634 28.4344C25.1999 28.4495 29.4284 24.2771 29.4479 18.9773C29.467 13.7812 25.2045 9.54073 19.9503 9.52806C14.6794 9.5154 10.4357 13.7323 10.4207 18.9968Z" fill="#533A8E"/>
<path d="M18.1476 23.0674C18.1476 23.0674 18.1475 23.0674 18.1475 23.0674L17.8531 22.9024M18.1476 23.0674L17.8531 22.9024M18.1476 23.0674C18.3296 22.7426 18.4678 22.4001 18.4258 22.0244C18.3839 21.6484 18.1733 21.3452 17.9241 21.0695L17.924 21.0695C17.9001 21.043 17.8778 21.0177 17.857 20.9936L18.1476 23.0674ZM17.8531 22.9024C17.8531 22.9024 17.8531 22.9024 17.8531 22.9024M17.8531 22.9024L17.7114 22.8229M17.8531 22.9024C17.816 22.9601 17.7748 23.0218 17.7293 23.0876L17.7292 23.0877C17.0695 24.0415 16.6188 24.1726 16.3308 24.1282C16.2518 24.116 16.1657 24.0889 16.0718 24.0432C16.0718 24.0432 16.0718 24.0431 16.0717 24.0431C15.9615 23.9895 15.8405 23.9102 15.7072 23.7993C15.461 23.5945 15.2004 23.3048 14.9183 22.9379L14.9181 22.9377C14.8887 22.8995 14.8553 22.8235 14.821 22.6563C14.8135 22.6198 14.8046 22.569 14.7943 22.5108C14.7765 22.4095 14.7547 22.2857 14.7296 22.1748C14.747 22.0206 14.7714 21.8689 14.8021 21.7195C14.8021 21.7195 14.8021 21.7195 14.8021 21.7195C14.9759 20.8733 15.3535 20.1009 15.8381 19.345C16.193 18.7916 16.5731 18.2673 16.9814 17.7751M17.8531 22.9024C18.1163 22.4929 18.1769 22.2769 18.1661 22.1188C18.1545 21.9492 18.0522 21.725 17.6682 21.3009C17.6682 21.3009 17.6682 21.3009 17.6682 21.3009C17.6473 21.2778 17.6256 21.2542 17.6031 21.2299L17.7114 22.8229M17.8531 22.9024L17.7114 22.8229M17.7114 22.8229L21.5746 14.2601C19.7297 15.0745 18.225 16.2758 16.9814 17.7751M16.9814 17.7751L17.1015 17.8792L16.9814 17.7751M16.9814 17.7751C16.9814 17.7751 16.9814 17.7751 16.9814 17.7751M16.9814 17.7751L16.7236 17.5518M16.9814 17.7751L16.7236 17.5518M16.7236 17.5518C16.2889 18.0537 15.8832 18.5829 15.5335 19.1497L23.4621 13.3712L23.0798 13.4684C22.9784 13.4942 22.8645 13.5199 22.7435 13.5473C22.4463 13.6144 22.1065 13.6912 21.8049 13.8021M16.7236 17.5518C18.022 16.0528 19.522 14.7369 21.436 13.946L21.3727 13.8027L21.436 13.946C21.5573 13.8959 21.6802 13.8479 21.8049 13.8021M21.8049 13.8021C21.8049 13.8021 21.8049 13.8021 21.8049 13.8021L21.9209 14.1177L21.8049 13.8021Z" fill="#999999" fill-opacity="0.82" stroke="#533A8E"/>
</g>
<defs>
<clipPath id="clip0_294_42">
<rect width="36" height="38" fill="white"/>
</clipPath>
</defs>
</svg>
