<svg width="24" height="25" viewBox="0 0 24 25" fill="none" xmlns="http://www.w3.org/2000/svg">
<path d="M23.8225 12.2998C23.8225 11.3105 23.7422 10.5885 23.5685 9.83984H12.2713V14.3052H18.9025C18.7689 15.4149 18.0469 17.086 16.4426 18.209L16.4201 18.3585L19.992 21.1257L20.2395 21.1504C22.5123 19.0513 23.8225 15.963 23.8225 12.2998Z" fill="#B045CB"/>
<path d="M12.2713 24.0648C15.5201 24.0648 18.2474 22.9952 20.2395 21.1503L16.4426 18.2089C15.4265 18.9175 14.0628 19.4122 12.2713 19.4122C9.08945 19.4122 6.38885 17.3133 5.42616 14.4121L5.28505 14.4241L1.57089 17.2985L1.52231 17.4335C3.50096 21.3641 7.56527 24.0648 12.2713 24.0648Z" fill="#B045CB"/>
<path d="M5.42617 14.4121C5.17215 13.6635 5.02515 12.8612 5.02515 12.0324C5.02515 11.2034 5.17215 10.4013 5.4128 9.65262L5.40608 9.49317L1.64537 6.57257L1.52232 6.6311C0.706826 8.26218 0.238892 10.0938 0.238892 12.0324C0.238892 13.9709 0.706826 15.8025 1.52232 17.4336L5.42617 14.4121Z" fill="#B045CB"/>
<path d="M12.2717 4.65252C14.5311 4.65252 16.0552 5.62848 16.9242 6.44407L20.3201 3.12844C18.2345 1.18988 15.5204 0 12.2717 0C7.56565 0 3.50134 2.7006 1.52269 6.63117L5.41317 9.6527C6.38922 6.75154 9.08982 4.65252 12.2717 4.65252Z" fill="#B045CB"/>
</svg>
