<svg width="31" height="33" viewBox="0 0 31 33" fill="none" xmlns="http://www.w3.org/2000/svg">
<path fill-rule="evenodd" clip-rule="evenodd" d="M13.5372 0.611366C13.994 0.21665 14.5735 0 15.1724 0C15.7713 0 16.3508 0.21665 16.8077 0.611366L29.4513 11.5436C29.7313 11.7855 29.9563 12.0866 30.1106 12.426C30.2648 12.7654 30.3448 13.135 30.3448 13.5091V29.6642C30.3448 30.3477 30.0784 31.0032 29.6042 31.4866C29.1299 31.9699 28.4868 32.2414 27.8161 32.2414H18.1226C17.7873 32.2414 17.4657 32.1056 17.2286 31.864C16.9914 31.6223 16.8582 31.2946 16.8582 30.9528V20.2148H13.4866V30.9528C13.4866 31.2946 13.3534 31.6223 13.1163 31.864C12.8792 32.1056 12.5576 32.2414 12.2222 32.2414H2.52874C1.85807 32.2414 1.21488 31.9699 0.74065 31.4866C0.26642 31.0032 0 30.3477 0 29.6642V13.5091C0 12.7531 0.32705 12.0332 0.893487 11.5436L13.5372 0.611366ZM15.1724 2.57686L2.52874 13.5091V29.6642H10.9579V18.9262C10.9579 18.5844 11.0911 18.2567 11.3282 18.015C11.5653 17.7734 11.8869 17.6376 12.2222 17.6376H18.1226C18.4579 17.6376 18.7795 17.7734 19.0166 18.015C19.2538 18.2567 19.387 18.5844 19.387 18.9262V29.6642H27.8161V13.5091L15.1724 2.57686Z" fill="#533A8E"/>
</svg>
