<svg width="46" height="32" viewBox="0 0 46 32" fill="none" xmlns="http://www.w3.org/2000/svg">
<path d="M45.9767 16.5356C45.9767 18.7938 45.9006 21.0549 45.9929 23.3094C46.1722 27.6858 43.0034 30.7543 39.3988 31.6821C35.4443 32.7003 31.1837 31.2177 29.0482 27.9974C28.6658 27.4208 28.4044 26.7599 28.1461 26.1151C28.0165 25.7916 27.8965 25.674 27.5114 25.678C24.4562 25.7087 21.4006 25.7008 18.3452 25.7224C18.1981 25.7234 17.9559 25.8623 17.9194 25.9836C16.8144 29.6557 12.8366 32.2875 8.48164 31.9593C4.84837 31.6854 2.08709 30.043 0.603507 26.7043C0.229252 25.8623 0.0441522 24.8761 0.0342633 23.9537C-0.019238 18.89 0.00383598 13.8254 0.0119499 8.76124C0.014232 7.36172 0.633681 6.17483 1.5465 5.1616C4.39247 2.00309 7.94232 0.181311 12.2871 0.0294763C13.7836 -0.0228721 15.1156 0.488703 16.18 1.57884C16.305 1.70686 16.5545 1.78575 16.7414 1.77806C17.926 1.72919 19.1084 1.60886 20.293 1.58901C22.2967 1.55577 24.3018 1.55105 26.3052 1.59248C27.2497 1.61208 28.1904 1.77657 29.1347 1.85274C29.3101 1.86688 29.5609 1.83264 29.6654 1.72075C30.9378 0.361182 32.5608 -0.142703 34.3646 0.0329496C38.4066 0.426183 41.7838 2.15021 44.4432 5.15739C45.498 6.35023 46.0307 7.74032 45.9917 9.36262C45.9341 11.7523 45.9767 14.1442 45.9767 16.5353V16.5356ZM30.5283 4.49819C30.3462 4.44907 30.1974 4.41905 30.0559 4.36943C28.7292 3.9045 27.3625 3.72388 25.9538 3.74075C23.8479 3.76581 21.7411 3.76432 19.6353 3.74075C18.3327 3.72636 17.0568 3.85314 15.8217 4.26101C15.482 4.37315 15.3075 4.32229 15.1551 3.99133C14.5007 2.56875 13.297 2.04973 11.7891 2.20528C8.36348 2.55857 5.5165 4.0469 3.23648 6.55764C2.54071 7.32401 2.21007 8.22485 2.21717 9.29068C2.24962 14.1226 2.23619 18.9548 2.22858 23.787C2.2263 25.2914 2.74432 26.5954 3.81333 27.658C5.79517 29.6279 8.21845 30.1866 10.927 29.5971C13.2357 29.0947 15.7827 27.2544 15.9939 24.0666C16.0121 23.7919 16.0403 23.5178 16.0578 23.3126C20.7175 23.6642 25.3077 23.8339 29.9243 23.1637C29.9402 23.3791 29.9631 23.592 29.9704 23.8053C30.0229 25.3688 30.5774 26.7324 31.7375 27.8163C33.624 29.5795 35.8994 30.1338 38.4211 29.6626C41.3185 29.121 43.8526 26.7902 43.7768 23.4012C43.6716 18.7042 43.7317 14.003 43.7646 9.30382C43.7722 8.23949 43.4223 7.35974 42.7621 6.56087C41.9081 5.52779 40.8576 4.71925 39.7003 4.03797C37.9766 3.02301 36.1467 2.30353 34.1123 2.19139C32.6168 2.10902 31.4568 2.62978 30.8011 4.01713C30.7306 4.16624 30.638 4.30542 30.5283 4.49745V4.49819Z" fill="#533A8E"/>
</svg>
