<svg width="37" height="37" viewBox="0 0 37 37" fill="none" xmlns="http://www.w3.org/2000/svg">
<g clip-path="url(#clip0_300_766)">
<path d="M17.7449 0C18.2357 0 18.7265 0 19.2173 0C19.3038 0.010949 19.3903 0.0245408 19.4767 0.0328469C20.0585 0.0894796 20.6449 0.118173 21.2221 0.20501C25.2808 0.816265 28.7701 2.57679 31.6482 5.49677C34.6913 8.584 36.4348 12.3055 36.8947 16.6213C36.9373 17.0204 36.9653 17.421 37 17.8208V19.2177C36.9891 19.3102 36.9732 19.4027 36.9683 19.4956C36.8497 21.8258 36.3208 24.0591 35.3414 26.1767C33.6791 29.7722 31.123 32.5619 27.6994 34.5508C25.4673 35.8477 23.0586 36.6164 20.492 36.8909C20.1178 36.9309 19.7425 36.9641 19.368 37.0004H17.518C17.4515 36.9883 17.3851 36.9694 17.3183 36.9653C15.7344 36.8716 14.1865 36.5821 12.6819 36.081C9.14617 34.9035 6.23072 32.8364 3.93597 29.9062C1.7541 27.1191 0.494214 23.9503 0.110245 20.4331C0.0687143 20.0532 0.0366224 19.6731 0 19.2929C0 18.7012 0 18.11 0 17.5184C0.0113265 17.4379 0.0286939 17.3583 0.0332245 17.2775C0.126857 15.6548 0.432674 14.0725 0.96049 12.5362C2.15582 9.05707 4.22291 6.19297 7.11268 3.9288C9.89335 1.75033 13.0504 0.481 16.5651 0.10949C16.9581 0.0679592 17.3515 0.0362449 17.7449 0ZM31.2374 28.4296C36.055 22.4243 36.1407 12.7793 29.4071 6.58071C22.9861 0.669776 12.9874 0.896684 6.845 7.30939C0.779265 13.6421 1.18287 22.869 5.80069 28.484C5.89621 28.2888 5.98267 28.0951 6.0831 27.9086C8.01163 24.3245 11.0015 22.3344 15.0666 22.1037C17.0985 21.9882 19.1418 22.0637 21.1799 22.0701C22.0346 22.0728 22.8917 22.0965 23.731 22.2963C26.4399 22.9411 28.5606 24.457 30.1769 26.6947C30.5722 27.2422 30.8859 27.8493 31.2374 28.43V28.4296Z" fill="#533A8E"/>
<path d="M18.4762 20.8661C14.6607 20.8702 11.5131 17.7399 11.5108 13.9388C11.5082 10.0889 14.6384 6.9367 18.4653 6.93482C22.3344 6.93293 25.4817 10.0307 25.484 13.8432C25.4862 17.7437 22.3752 20.8619 18.4762 20.8661Z" fill="#533A8E"/>
</g>
<defs>
<clipPath id="clip0_300_766">
<rect width="37" height="37" fill="white"/>
</clipPath>
</defs>
</svg>
