<svg width="203" height="244" viewBox="0 0 203 244" fill="none" xmlns="http://www.w3.org/2000/svg">
    <path opacity="0.1" d="M188.385 88.2575C173.362 30.5996 118.461 -6.16261 64.9608 2.17621C44.7508 5.32355 24.6682 9.28205 4.6174 13.4028C2.19857 13.8895 0.60724 16.323 1.08464 18.8214C11.0464 70.7038 32.3066 185.338 42.332 237.221C44.6872 249.356 51.2753 238.908 60.7597 237.026C67.8464 235.598 70.6896 231.196 69.2892 223.82C61.3962 182.645 43.064 86.6676 34.9482 45.5251C33.707 39.2629 35.8394 37.0889 41.6318 35.9533C53.726 33.5847 66.4248 30.5671 78.7736 30.7294C88.7035 30.8267 98.6016 32.7735 107.895 36.3751C126.291 43.5134 141.981 57.2059 151.752 74.5974C158.086 85.8889 161.841 98.6404 162.732 111.619C165.756 154.676 136.125 193.125 94.8142 202.535C81.0651 205.682 67.2523 208.44 53.4395 211.198C38.4492 214.183 44.6872 226.675 49.0156 241.601C49.0156 241.601 49.1111 241.893 49.1429 241.925C75.5591 236.993 86.5711 235.014 112.478 228.071C169.83 212.626 203.63 146.856 188.353 88.2575H188.385Z" fill="#FF6F15" stroke="#FF6F15" stroke-width="2" stroke-miterlimit="10"/>
    <path opacity="0.1" d="M188.385 88.2575C173.362 30.5996 118.461 -6.16261 64.9608 2.17621C44.7508 5.32355 24.6682 9.28205 4.6174 13.4028C2.19857 13.8895 0.60724 16.323 1.08464 18.8214C11.0464 70.7038 32.3066 185.338 42.332 237.221C44.6872 249.356 51.2753 238.908 60.7597 237.026C67.8464 235.598 70.6896 231.196 69.2892 223.82C61.3962 182.645 43.064 86.6676 34.9482 45.5251C33.707 39.2629 35.8394 37.0889 41.6318 35.9533C53.726 33.5847 66.4248 30.5671 78.7736 30.7294C88.7035 30.8267 98.6016 32.7735 107.895 36.3751C126.291 43.5134 141.981 57.2059 151.752 74.5974C158.086 85.8889 161.841 98.6404 162.732 111.619C165.756 154.676 136.125 193.125 94.8142 202.535C81.0651 205.682 67.2523 208.44 53.4395 211.198C38.4492 214.183 44.6872 226.675 49.0156 241.601C49.0156 241.601 49.1111 241.893 49.1429 241.925C75.5591 236.993 86.5711 235.014 112.478 228.071C169.83 212.626 203.63 146.856 188.353 88.2575H188.385Z" fill="#FF6F15" stroke="#FF6F15" stroke-width="2" stroke-miterlimit="10"/>
    <path opacity="0.1" d="M188.385 88.2575C173.362 30.5996 118.461 -6.16261 64.9608 2.17621C44.7508 5.32355 24.6682 9.28205 4.6174 13.4028C2.19857 13.8895 0.60724 16.323 1.08464 18.8214C11.0464 70.7038 32.3066 185.338 42.332 237.221C44.6872 249.356 51.2753 238.908 60.7597 237.026C67.8464 235.598 70.6896 231.196 69.2892 223.82C61.3962 182.645 43.064 86.6676 34.9482 45.5251C33.707 39.2629 35.8394 37.0889 41.6318 35.9533C53.726 33.5847 66.4248 30.5671 78.7736 30.7294C88.7035 30.8267 98.6016 32.7735 107.895 36.3751C126.291 43.5134 141.981 57.2059 151.752 74.5974C158.086 85.8889 161.841 98.6404 162.732 111.619C165.756 154.676 136.125 193.125 94.8142 202.535C81.0651 205.682 67.2523 208.44 53.4395 211.198C38.4492 214.183 44.6872 226.675 49.0156 241.601C49.0156 241.601 49.1111 241.893 49.1429 241.925C75.5591 236.993 86.5711 235.014 112.478 228.071C169.83 212.626 203.63 146.856 188.353 88.2575H188.385Z" fill="#FF6F15" stroke="#FF6F15" stroke-width="2" stroke-miterlimit="10"/>
    <path d="M157.32 149.362C158.295 164.65 169.987 176.68 183.453 177.274C188.54 177.5 193.626 177.52 198.732 177.479C199.355 177.479 199.843 176.946 199.843 176.291C199.843 162.703 200.018 132.721 199.998 119.134C199.998 115.958 197.894 118.253 195.477 118.253C193.671 118.253 192.769 119.216 192.769 121.142C192.769 131.922 192.749 157.047 192.788 167.827C192.788 169.466 192.164 169.917 190.703 169.917C187.643 169.917 184.389 170.02 181.368 169.364C178.952 168.831 176.613 167.847 174.509 166.474C170.358 163.749 167.142 159.506 165.583 154.629C164.57 151.452 164.239 148.071 164.628 144.751C165.915 133.746 174.957 125.528 185.5 125.241C189.007 125.139 192.515 125.139 196.023 125.139C199.823 125.139 198.888 121.675 198.537 117.7V117.618C191.853 117.536 189.066 117.474 182.401 117.925C167.688 118.95 156.327 133.828 157.32 149.362Z" fill="#533A8E" stroke="#533A8E" stroke-width="5.6" stroke-miterlimit="10"/>
    <path d="M88.7626 82.5619V179.926H68.9676V85.9216C68.9676 77.4059 65.4351 73.8134 59.6748 73.8134C53.3098 73.8134 48.4088 77.9382 48.4088 87.7511V116.292H28.582V57.2146H47.4541V63.6346C51.9414 58.7447 58.3063 56.2167 65.3714 56.2167C78.6105 56.2167 88.7308 64.1668 88.7308 82.4953L88.7626 82.5619Z" fill="#533A8E"/>
    <path d="M4.64392 150.288C4.64392 132.525 18.1058 119.884 37.0733 119.884C49.8987 119.884 59.7007 125.872 63.5515 136.117L48.2438 144.3C45.5387 138.745 41.5606 136.35 36.9778 136.35C30.1037 136.35 24.6617 141.373 24.6617 150.288C24.6617 159.203 30.0719 164.458 36.9778 164.458C41.5606 164.458 45.5387 162.063 48.2438 156.508L63.5515 164.691C59.7007 174.936 49.8987 180.924 37.0733 180.924C18.1058 180.924 4.64392 168.284 4.64392 150.288Z" fill="#BBA9FF"/>
    <path d="M152.507 120.882V179.959H133.635V173.639C129.371 178.562 123.324 180.957 116.832 180.957C102.956 180.957 92.8679 172.674 92.8679 153.947V120.915H112.663V150.554C112.663 159.701 116.1 163.294 122.051 163.294C128.002 163.294 132.681 159.269 132.681 149.356V120.915H152.476L152.507 120.882Z" fill="#9D47B2"/>
    <path opacity="0.2" d="M105.449 118.561C110.37 118.867 114.593 114.999 114.884 109.922C115.174 104.846 111.42 100.482 106.5 100.176C101.58 99.8701 97.3562 103.738 97.0659 108.814C96.7757 113.891 100.529 118.255 105.449 118.561Z" fill="#FF6200" stroke="#FF6200" stroke-width="2" stroke-miterlimit="10"/>
    <path opacity="0.2" d="M137.592 112.36C142.513 112.666 146.736 108.798 147.027 103.721C147.317 98.6447 143.564 94.281 138.643 93.975C133.723 93.6691 129.499 97.5365 129.209 102.613C128.919 107.69 132.672 112.054 137.592 112.36Z" fill="#FF6200" stroke="#FF6200" stroke-width="2" stroke-miterlimit="10"/>
    <path opacity="0.2" d="M105.449 118.561C110.37 118.867 114.593 114.999 114.884 109.922C115.174 104.846 111.42 100.482 106.5 100.176C101.58 99.8701 97.3562 103.738 97.0659 108.814C96.7757 113.891 100.529 118.255 105.449 118.561Z" fill="#FF6200" stroke="#FF6200" stroke-width="2" stroke-miterlimit="10"/>
    <path opacity="0.2" d="M137.592 112.36C142.513 112.666 146.736 108.798 147.027 103.721C147.317 98.6447 143.564 94.281 138.643 93.975C133.723 93.6691 129.499 97.5365 129.209 102.613C128.919 107.69 132.672 112.054 137.592 112.36Z" fill="#FF6200" stroke="#FF6200" stroke-width="2" stroke-miterlimit="10"/>
    <path opacity="0.2" d="M105.449 118.561C110.37 118.867 114.593 114.999 114.884 109.922C115.174 104.846 111.42 100.482 106.5 100.176C101.58 99.8701 97.3562 103.738 97.0659 108.814C96.7757 113.891 100.529 118.255 105.449 118.561Z" fill="#FF6200" stroke="#FF6200" stroke-width="2" stroke-miterlimit="10"/>
    <path opacity="0.2" d="M137.592 112.36C142.513 112.666 146.736 108.798 147.027 103.721C147.317 98.6447 143.564 94.281 138.643 93.975C133.723 93.6691 129.499 97.5365 129.209 102.613C128.919 107.69 132.672 112.054 137.592 112.36Z" fill="#FF6200" stroke="#FF6200" stroke-width="2" stroke-miterlimit="10"/>
    <path opacity="0.2" d="M105.449 118.561C110.37 118.867 114.593 114.999 114.884 109.922C115.174 104.846 111.42 100.482 106.5 100.176C101.58 99.8701 97.3562 103.738 97.0659 108.814C96.7757 113.891 100.529 118.255 105.449 118.561Z" fill="#FF6200" stroke="#FF6200" stroke-width="2" stroke-miterlimit="10"/>
    <path opacity="0.2" d="M137.592 112.36C142.513 112.666 146.736 108.798 147.027 103.721C147.317 98.6447 143.564 94.281 138.643 93.975C133.723 93.6691 129.499 97.5365 129.209 102.613C128.919 107.69 132.672 112.054 137.592 112.36Z" fill="#FF6200" stroke="#FF6200" stroke-width="2" stroke-miterlimit="10"/>
    <path opacity="0.2" d="M105.449 118.561C110.37 118.867 114.593 114.999 114.884 109.922C115.174 104.846 111.42 100.482 106.5 100.176C101.58 99.8701 97.3562 103.738 97.0659 108.814C96.7757 113.891 100.529 118.255 105.449 118.561Z" fill="#FF6200" stroke="#FF6200" stroke-width="2" stroke-miterlimit="10"/>
    <path opacity="0.2" d="M137.592 112.36C142.513 112.666 146.736 108.798 147.027 103.721C147.317 98.6447 143.564 94.281 138.643 93.975C133.723 93.6691 129.499 97.5365 129.209 102.613C128.919 107.69 132.672 112.054 137.592 112.36Z" fill="#FF6200" stroke="#FF6200" stroke-width="2" stroke-miterlimit="10"/>
    <path opacity="0.2" d="M105.449 118.561C110.37 118.867 114.593 114.999 114.884 109.922C115.174 104.846 111.42 100.482 106.5 100.176C101.58 99.8701 97.3562 103.738 97.0659 108.814C96.7757 113.891 100.529 118.255 105.449 118.561Z" fill="#FF6200" stroke="#FF6200" stroke-width="2" stroke-miterlimit="10"/>
    <path opacity="0.2" d="M137.592 112.36C142.513 112.666 146.736 108.798 147.027 103.721C147.317 98.6447 143.564 94.281 138.643 93.975C133.723 93.6691 129.499 97.5365 129.209 102.613C128.919 107.69 132.672 112.054 137.592 112.36Z" fill="#FF6200" stroke="#FF6200" stroke-width="2" stroke-miterlimit="10"/>
    <path opacity="0.2" d="M105.449 118.561C110.37 118.867 114.593 114.999 114.884 109.922C115.174 104.846 111.42 100.482 106.5 100.176C101.58 99.8701 97.3562 103.738 97.0659 108.814C96.7757 113.891 100.529 118.255 105.449 118.561Z" fill="#FF6200" stroke="#FF6200" stroke-width="2" stroke-miterlimit="10"/>
    <path opacity="0.2" d="M137.592 112.36C142.513 112.666 146.736 108.798 147.027 103.721C147.317 98.6447 143.564 94.281 138.643 93.975C133.723 93.6691 129.499 97.5365 129.209 102.613C128.919 107.69 132.672 112.054 137.592 112.36Z" fill="#FF6200" stroke="#FF6200" stroke-width="2" stroke-miterlimit="10"/>
    <path opacity="0.2" d="M105.449 118.561C110.37 118.867 114.593 114.999 114.884 109.922C115.174 104.846 111.42 100.482 106.5 100.176C101.58 99.8701 97.3562 103.738 97.0659 108.814C96.7757 113.891 100.529 118.255 105.449 118.561Z" fill="#FF6200" stroke="#FF6200" stroke-width="2" stroke-miterlimit="10"/>
    <path opacity="0.2" d="M137.592 112.36C142.513 112.666 146.736 108.798 147.027 103.721C147.317 98.6447 143.564 94.281 138.643 93.975C133.723 93.6691 129.499 97.5365 129.209 102.613C128.919 107.69 132.672 112.054 137.592 112.36Z" fill="#FF6200" stroke="#FF6200" stroke-width="2" stroke-miterlimit="10"/>
    <path opacity="0.2" d="M105.449 118.561C110.37 118.867 114.593 114.999 114.884 109.922C115.174 104.846 111.42 100.482 106.5 100.176C101.58 99.8701 97.3562 103.738 97.0659 108.814C96.7757 113.891 100.529 118.255 105.449 118.561Z" fill="#FF6200" stroke="#FF6200" stroke-width="2" stroke-miterlimit="10"/>
    <path opacity="0.2" d="M137.592 112.36C142.513 112.666 146.736 108.798 147.027 103.721C147.317 98.6447 143.564 94.281 138.643 93.975C133.723 93.6691 129.499 97.5365 129.209 102.613C128.919 107.69 132.672 112.054 137.592 112.36Z" fill="#FF6200" stroke="#FF6200" stroke-width="2" stroke-miterlimit="10"/>
    <path opacity="0.2" d="M105.449 118.561C110.37 118.867 114.593 114.999 114.884 109.922C115.174 104.846 111.42 100.482 106.5 100.176C101.58 99.8701 97.3562 103.738 97.0659 108.814C96.7757 113.891 100.529 118.255 105.449 118.561Z" fill="#FF6200" stroke="#FF6200" stroke-width="2" stroke-miterlimit="10"/>
    <path opacity="0.2" d="M137.592 112.36C142.513 112.666 146.736 108.798 147.027 103.721C147.317 98.6447 143.564 94.281 138.643 93.975C133.723 93.6691 129.499 97.5365 129.209 102.613C128.919 107.69 132.672 112.054 137.592 112.36Z" fill="#FF6200" stroke="#FF6200" stroke-width="2" stroke-miterlimit="10"/>
    <path opacity="0.2" d="M105.449 118.561C110.37 118.867 114.593 114.999 114.884 109.922C115.174 104.846 111.42 100.482 106.5 100.176C101.58 99.8701 97.3562 103.738 97.0659 108.814C96.7757 113.891 100.529 118.255 105.449 118.561Z" fill="#FF6200" stroke="#FF6200" stroke-width="2" stroke-miterlimit="10"/>
    <path opacity="0.2" d="M137.592 112.36C142.513 112.666 146.736 108.798 147.027 103.721C147.317 98.6447 143.564 94.281 138.643 93.975C133.723 93.6691 129.499 97.5365 129.209 102.613C128.919 107.69 132.672 112.054 137.592 112.36Z" fill="#FF6200" stroke="#FF6200" stroke-width="2" stroke-miterlimit="10"/>
    <path d="M5 39.9287C5 33.7545 9.56973 29 16.5 29C23.4303 29 28 33.4243 28 39.5985C28 46.1028 23.4303 50.8573 16.5 50.8573C9.56973 50.8573 5 46.1028 5 39.9287ZM7.08816 57.3617H25.9421V116H7.08816V57.3617Z" fill="#B045CB"/>
    </svg>
    